{
	"asset":{
		"generator":"Khronos glTF Blender I/O v4.2.60",
		"version":"2.0"
	},
	"scene":0,
	"scenes":[
		{
			"name":"Scene",
			"nodes":[
				0,
				1,
				2,
				3,
				4
			]
		}
	],
	"nodes":[
		{
			"mesh":0,
			"name":"Plane",
			"rotation":[
				0,
				0,
				-0.7071068286895752,
				0.7071068286895752
			],
			"scale":[
				1,
				1,
				1.5049999952316284
			],
			"translation":[
				0,
				4.764327049255371,
				0
			]
		},
		{
			"name":"Wind",
			"rotation":[
				-0.7170265316963196,
				0,
				0,
				0.6970458626747131
			],
			"translation":[
				0,
				4.529560089111328,
				3.6497645378112793
			]
		},
		{
			"mesh":1,
			"name":"Cylinder",
			"scale":[
				0.054268475621938705,
				3.2133078575134277,
				0.054268475621938705
			],
			"translation":[
				0,
				2.69594669342041,
				1.5788791179656982
			]
		},
		{
			"mesh":2,
			"name":"Cylinder.001",
			"scale":[
				1.0013049840927124,
				0.213239848613739,
				1.0013049840927124
			],
			"translation":[
				0,
				-0.006583377718925476,
				1.5799553394317627
			]
		},
		{
			"mesh":3,
			"name":"Cylinder.002",
			"scale":[
				1.3391058444976807,
				0.2851785719394684,
				1.3391058444976807
			],
			"translation":[
				0,
				-0.43324026465415955,
				1.580055832862854
			]
		}
	],
	"materials":[
		{
			"doubleSided":true,
			"name":"Material.001"
		},
		{
			"doubleSided":true,
			"name":"Material.002",
			"pbrMetallicRoughness":{
				"baseColorFactor":[
					0.19966864585876465,
					0.19966864585876465,
					0.19966864585876465,
					1
				],
				"metallicFactor":0.5,
				"roughnessFactor":0.2639999985694885
			}
		},
		{
			"doubleSided":true,
			"name":"Material.003",
			"pbrMetallicRoughness":{
				"baseColorFactor":[
					0.022697359323501587,
					0.022697359323501587,
					0.022697359323501587,
					1
				],
				"metallicFactor":0.2639999985694885,
				"roughnessFactor":0.2639999985694885
			}
		}
	],
	"meshes":[
		{
			"name":"Plane",
			"primitives":[
				{
					"attributes":{
						"POSITION":0,
						"NORMAL":1,
						"TEXCOORD_0":2
					},
					"indices":3,
					"material":0
				}
			]
		},
		{
			"name":"Cylinder",
			"primitives":[
				{
					"attributes":{
						"POSITION":4,
						"NORMAL":5,
						"TEXCOORD_0":6
					},
					"indices":7,
					"material":1
				}
			]
		},
		{
			"name":"Cylinder.001",
			"primitives":[
				{
					"attributes":{
						"POSITION":8,
						"NORMAL":9,
						"TEXCOORD_0":10
					},
					"indices":7,
					"material":2
				}
			]
		},
		{
			"name":"Cylinder.002",
			"primitives":[
				{
					"attributes":{
						"POSITION":11,
						"NORMAL":12,
						"TEXCOORD_0":13
					},
					"indices":7,
					"material":2
				}
			]
		}
	],
	"accessors":[
		{
			"bufferView":0,
			"componentType":5126,
			"count":2704,
			"max":[
				1,
				0,
				1
			],
			"min":[
				-1,
				0,
				-1
			],
			"type":"VEC3"
		},
		{
			"bufferView":1,
			"componentType":5126,
			"count":2704,
			"type":"VEC3"
		},
		{
			"bufferView":2,
			"componentType":5126,
			"count":2704,
			"type":"VEC2"
		},
		{
			"bufferView":3,
			"componentType":5123,
			"count":15606,
			"type":"SCALAR"
		},
		{
			"bufferView":4,
			"componentType":5126,
			"count":192,
			"max":[
				1,
				1,
				1
			],
			"min":[
				-1,
				-1,
				-1
			],
			"type":"VEC3"
		},
		{
			"bufferView":5,
			"componentType":5126,
			"count":192,
			"type":"VEC3"
		},
		{
			"bufferView":6,
			"componentType":5126,
			"count":192,
			"type":"VEC2"
		},
		{
			"bufferView":7,
			"componentType":5123,
			"count":372,
			"type":"SCALAR"
		},
		{
			"bufferView":8,
			"componentType":5126,
			"count":192,
			"max":[
				1,
				1,
				1
			],
			"min":[
				-1,
				-1,
				-1
			],
			"type":"VEC3"
		},
		{
			"bufferView":9,
			"componentType":5126,
			"count":192,
			"type":"VEC3"
		},
		{
			"bufferView":10,
			"componentType":5126,
			"count":192,
			"type":"VEC2"
		},
		{
			"bufferView":11,
			"componentType":5126,
			"count":192,
			"max":[
				1,
				1,
				1
			],
			"min":[
				-1,
				-1,
				-1
			],
			"type":"VEC3"
		},
		{
			"bufferView":12,
			"componentType":5126,
			"count":192,
			"type":"VEC3"
		},
		{
			"bufferView":13,
			"componentType":5126,
			"count":192,
			"type":"VEC2"
		}
	],
	"bufferViews":[
		{
			"buffer":0,
			"byteLength":32448,
			"byteOffset":0,
			"target":34962
		},
		{
			"buffer":0,
			"byteLength":32448,
			"byteOffset":32448,
			"target":34962
		},
		{
			"buffer":0,
			"byteLength":21632,
			"byteOffset":64896,
			"target":34962
		},
		{
			"buffer":0,
			"byteLength":31212,
			"byteOffset":86528,
			"target":34963
		},
		{
			"buffer":0,
			"byteLength":2304,
			"byteOffset":117740,
			"target":34962
		},
		{
			"buffer":0,
			"byteLength":2304,
			"byteOffset":120044,
			"target":34962
		},
		{
			"buffer":0,
			"byteLength":1536,
			"byteOffset":122348,
			"target":34962
		},
		{
			"buffer":0,
			"byteLength":744,
			"byteOffset":123884,
			"target":34963
		},
		{
			"buffer":0,
			"byteLength":2304,
			"byteOffset":124628,
			"target":34962
		},
		{
			"buffer":0,
			"byteLength":2304,
			"byteOffset":126932,
			"target":34962
		},
		{
			"buffer":0,
			"byteLength":1536,
			"byteOffset":129236,
			"target":34962
		},
		{
			"buffer":0,
			"byteLength":2304,
			"byteOffset":130772,
			"target":34962
		},
		{
			"buffer":0,
			"byteLength":2304,
			"byteOffset":133076,
			"target":34962
		},
		{
			"buffer":0,
			"byteLength":1536,
			"byteOffset":135380,
			"target":34962
		}
	],
	"buffers":[
		{
			"byteLength":136916,
			"uri":"bandeira2.bin"
		}
	]
}
