{
	"asset":{
		"generator":"Khronos glTF Blender I/O v4.2.60",
		"version":"2.0"
	},
	"scene":0,
	"scenes":[
		{
			"name":"Scene",
			"nodes":[
				0,
				1,
				2
			]
		}
	],
	"nodes":[
		{
			"mesh":0,
			"name":"Cube.001"
		},
		{
			"mesh":1,
			"name":"Plane",
			"scale":[
				1.936972975730896,
				1.936972975730896,
				1.936972975730896
			],
			"translation":[
				0,
				0.008129477500915527,
				0
			]
		},
		{
			"mesh":2,
			"name":"Cube"
		}
	],
	"materials":[
		{
			"doubleSided":true,
			"name":"Wood_Table"
		},
		{
			"doubleSided":true,
			"name":"Wood_Table_Glass"
		}
	],
	"meshes":[
		{
			"name":"Cube.001",
			"primitives":[
				{
					"attributes":{
						"POSITION":0,
						"NORMAL":1,
						"TEXCOORD_0":2
					},
					"indices":3,
					"material":0
				}
			]
		},
		{
			"name":"Plane.001",
			"primitives":[
				{
					"attributes":{
						"POSITION":4,
						"NORMAL":5
					},
					"indices":6
				}
			]
		},
		{
			"name":"Cube",
			"primitives":[
				{
					"attributes":{
						"POSITION":7,
						"NORMAL":8,
						"TEXCOORD_0":9
					},
					"indices":10,
					"material":1
				}
			]
		}
	],
	"accessors":[
		{
			"bufferView":0,
			"componentType":5126,
			"count":566,
			"max":[
				0.33002641797065735,
				0.47114095091819763,
				0.33002641797065735
			],
			"min":[
				-0.33002641797065735,
				0.004732012748718262,
				-0.33002641797065735
			],
			"type":"VEC3"
		},
		{
			"bufferView":1,
			"componentType":5126,
			"count":566,
			"type":"VEC3"
		},
		{
			"bufferView":2,
			"componentType":5126,
			"count":566,
			"type":"VEC2"
		},
		{
			"bufferView":3,
			"componentType":5123,
			"count":1824,
			"type":"SCALAR"
		},
		{
			"bufferView":4,
			"componentType":5126,
			"count":4,
			"max":[
				1,
				0,
				1
			],
			"min":[
				-1,
				0,
				-1
			],
			"type":"VEC3"
		},
		{
			"bufferView":5,
			"componentType":5126,
			"count":4,
			"type":"VEC3"
		},
		{
			"bufferView":6,
			"componentType":5123,
			"count":6,
			"type":"SCALAR"
		},
		{
			"bufferView":7,
			"componentType":5126,
			"count":32,
			"max":[
				0.20963749289512634,
				0.46969398856163025,
				0.21006229519844055
			],
			"min":[
				-0.2095595896244049,
				0.462062805891037,
				-0.20991912484169006
			],
			"type":"VEC3"
		},
		{
			"bufferView":8,
			"componentType":5126,
			"count":32,
			"type":"VEC3"
		},
		{
			"bufferView":9,
			"componentType":5126,
			"count":32,
			"type":"VEC2"
		},
		{
			"bufferView":10,
			"componentType":5123,
			"count":60,
			"type":"SCALAR"
		}
	],
	"bufferViews":[
		{
			"buffer":0,
			"byteLength":6792,
			"byteOffset":0,
			"target":34962
		},
		{
			"buffer":0,
			"byteLength":6792,
			"byteOffset":6792,
			"target":34962
		},
		{
			"buffer":0,
			"byteLength":4528,
			"byteOffset":13584,
			"target":34962
		},
		{
			"buffer":0,
			"byteLength":3648,
			"byteOffset":18112,
			"target":34963
		},
		{
			"buffer":0,
			"byteLength":48,
			"byteOffset":21760,
			"target":34962
		},
		{
			"buffer":0,
			"byteLength":48,
			"byteOffset":21808,
			"target":34962
		},
		{
			"buffer":0,
			"byteLength":12,
			"byteOffset":21856,
			"target":34963
		},
		{
			"buffer":0,
			"byteLength":384,
			"byteOffset":21868,
			"target":34962
		},
		{
			"buffer":0,
			"byteLength":384,
			"byteOffset":22252,
			"target":34962
		},
		{
			"buffer":0,
			"byteLength":256,
			"byteOffset":22636,
			"target":34962
		},
		{
			"buffer":0,
			"byteLength":120,
			"byteOffset":22892,
			"target":34963
		}
	],
	"buffers":[
		{
			"byteLength":23012,
			"uri":"Wood_Table_cycles.bin"
		}
	]
}
